<!DOCTYPE svg PUBLIC "-//W3C//DTD SVG 20010904//EN" "http://www.w3.org/TR/2001/REC-SVG-20010904/DTD/svg10.dtd">
<svg version="1.0" xmlns="http://www.w3.org/2000/svg" width="367px" height="387px" viewBox="0 0 3670 3870" preserveAspectRatio="xMidYMid meet">
<g id="layer101" fill="#45b09e" stroke="none">
<path d="M865 3861 c-7 -12 23 -32 160 -111 388 -222 688 -507 702 -668 6 -67 -9 -83 -67 -72 -126 25 -230 4 -283 -59 -40 -48 -43 -88 -19 -258 31 -223 60 -267 177 -268 104 0 157 50 221 208 29 71 37 82 56 79 52 -6 192 -84 287 -160 l23 -19 -45 -26 c-47 -28 -61 -49 -52 -77 10 -30 35 -31 94 -4 76 34 127 34 194 -4 61 -34 97 -30 97 12 0 29 -19 50 -70 76 -28 14 -41 29 -50 57 -28 86 -74 155 -158 234 -69 66 -103 89 -193 132 l-108 52 -1 80 c-1 267 -103 475 -294 603 -88 59 -174 89 -386 136 -85 19 -175 42 -199 50 -49 18 -77 20 -86 7z"/>
<path d="M2542 3850 c-41 -25 -47 -40 -32 -85 15 -47 33 -53 69 -24 15 13 37 29 47 35 18 11 18 12 0 52 -21 47 -36 51 -84 22z"/>
<path d="M5 3830 c-3 -5 29 -32 72 -61 233 -156 373 -286 478 -443 102 -153 158 -313 194 -551 28 -186 45 -243 76 -257 33 -15 82 15 118 73 34 55 57 182 57 312 0 101 -10 108 -47 37 -24 -46 -61 -90 -74 -90 -12 0 -17 26 -34 173 -31 272 -94 441 -207 563 -89 95 -207 150 -444 209 -208 52 -181 47 -189 35z"/>
<path d="M1876 3678 c-13 -20 -13 -34 -2 -99 19 -104 35 -131 119 -193 66 -49 74 -58 86 -105 7 -28 16 -51 20 -51 4 0 15 35 23 78 20 101 50 162 104 212 33 30 52 40 78 40 50 0 112 -51 154 -128 19 -35 41 -66 48 -69 8 -3 33 9 56 26 26 20 54 31 74 31 48 0 111 -53 152 -128 19 -35 40 -66 47 -69 7 -2 32 8 54 22 52 35 94 29 144 -20 48 -47 53 -82 28 -189 -12 -48 -24 -111 -27 -139 -6 -52 15 -208 34 -258 6 -15 89 -105 184 -200 108 -108 191 -200 219 -243 35 -56 45 -65 47 -48 6 37 -25 125 -66 187 -45 69 -190 234 -253 289 -77 65 -119 124 -119 165 0 40 41 209 67 272 20 51 56 79 102 79 32 0 45 -9 124 -92 78 -82 87 -96 87 -130 0 -36 27 -108 40 -108 4 0 12 11 18 25 8 17 34 36 77 55 36 16 68 36 71 45 11 27 -7 85 -35 117 -27 31 -30 32 -68 20 -83 -25 -106 -11 -191 112 -64 94 -164 107 -231 31 l-31 -36 0 28 c-1 73 -77 166 -146 179 -27 5 -48 1 -80 -14 -49 -24 -48 -24 -88 55 -29 59 -79 98 -138 108 -28 5 -50 1 -92 -18 -62 -29 -60 -30 -100 50 -30 61 -81 99 -141 108 -53 8 -120 -26 -160 -82 -16 -23 -32 -42 -35 -42 -3 -1 -18 24 -33 54 -32 66 -80 95 -156 95 -41 0 -53 -4 -65 -22z m182 -114 l68 -27 -20 -52 -21 -52 -45 30 c-97 65 -132 98 -119 113 17 21 62 17 137 -12z"/>
<path d="M1956 3180 c-51 -33 -52 -39 -20 -102 l14 -28 41 30 c41 29 59 31 59 7 0 -7 7 -22 15 -34 l15 -22 50 31 c54 33 56 44 24 96 -18 28 -23 28 -68 -3 l-36 -24 -14 33 c-8 18 -18 36 -24 39 -5 4 -30 -7 -56 -23z"/>
<path d="M2666 3100 c-51 -33 -52 -39 -20 -102 l14 -28 41 30 c41 29 59 31 59 7 0 -7 7 -22 15 -34 l15 -22 50 31 c54 33 56 44 24 96 -18 28 -23 28 -68 -3 l-36 -24 -14 33 c-8 18 -18 36 -24 39 -5 4 -30 -7 -56 -23z"/>
<path d="M1910 2390 c-17 -33 -3 -58 38 -69 400 -103 520 -132 546 -129 27 3 31 7 34 35 3 26 -1 35 -20 43 -33 14 -543 140 -567 140 -11 0 -25 -9 -31 -20z"/>
<path d="M1908 2195 c-9 -21 -9 -29 3 -40 8 -8 140 -45 293 -84 298 -74 326 -76 326 -27 0 13 -6 28 -13 34 -17 14 -528 142 -567 142 -23 0 -33 -6 -42 -25z"/>
<path d="M1913 2033 c-17 -6 -16 -48 1 -66 8 -7 52 -22 98 -32 l83 -18 -3 -51 c-9 -173 -57 -376 -88 -376 -13 0 -15 -11 -12 -60 1 -33 3 -60 3 -60 0 0 -32 9 -70 20 -78 23 -118 19 -140 -13 -31 -45 -20 -78 70 -201 47 -64 83 -121 80 -127 -4 -5 -3 -8 2 -7 5 2 29 -18 54 -44 l46 -48 170 0 c197 0 190 -3 269 105 26 35 52 61 57 58 6 -3 7 -1 4 4 -4 6 20 48 53 93 64 88 74 126 45 167 -22 32 -62 36 -137 14 l-68 -20 0 60 c0 46 -3 59 -15 59 -9 0 -20 12 -26 28 -22 55 -56 209 -62 275 l-6 67 27 -6 c92 -22 94 -25 108 -91 18 -87 56 -152 147 -252 237 -260 233 -577 -10 -812 -111 -107 -223 -152 -378 -152 -153 0 -282 52 -383 154 -108 109 -162 227 -170 372 -9 173 37 298 163 436 83 92 144 203 165 301 17 80 11 112 -23 125 -37 13 -52 -6 -60 -78 -9 -75 -74 -199 -151 -287 -128 -148 -174 -256 -183 -430 -9 -172 37 -315 143 -449 127 -159 282 -231 499 -231 217 0 373 71 500 230 119 147 168 316 145 498 -20 154 -68 252 -194 391 -74 83 -121 171 -131 247 -4 28 -11 57 -15 64 -8 13 -531 150 -570 149 -14 0 -31 -3 -37 -6z"/>
<path d="M2167 916 c-48 -18 -62 -29 -81 -70 -20 -43 -20 -79 1 -123 23 -49 66 -73 130 -73 44 0 58 5 87 31 67 58 67 149 1 208 -20 17 -41 31 -48 31 -7 0 -21 2 -32 5 -11 3 -37 -2 -58 -9z"/>
</g>
<g id="layer102" fill="#feb400" stroke="none">
<path d="M3090 1813 c-23 -10 -249 -202 -259 -221 -4 -9 -6 -24 -3 -32 5 -16 31 -40 44 -40 6 0 205 162 272 221 13 12 10 60 -5 70 -16 10 -27 10 -49 2z"/>
<path d="M1288 1799 c-11 -6 -18 -22 -18 -38 0 -23 19 -44 117 -127 128 -109 140 -116 166 -102 17 9 23 54 9 73 -12 18 -206 181 -229 193 -26 14 -23 14 -45 1z"/>
<path d="M2125 1386 c-73 -23 -95 -48 -55 -61 12 -4 25 -18 31 -32 17 -47 -27 -90 -82 -78 l-29 7 0 -91 c0 -74 3 -91 15 -91 8 0 57 14 110 30 l95 31 99 -32 c55 -17 106 -29 113 -27 10 4 12 28 10 92 l-4 87 -28 -6 c-54 -12 -98 32 -81 78 6 14 19 28 31 32 42 13 17 38 -60 62 -88 27 -76 27 -165 -1z"/>
<path d="M1100 1021 c-14 -27 -13 -37 6 -55 13 -13 43 -16 169 -16 142 0 155 2 165 19 14 27 13 37 -6 55 -13 13 -43 16 -169 16 -142 0 -155 -2 -165 -19z"/>
<path d="M2982 1028 c-7 -7 -12 -21 -12 -33 0 -41 16 -45 185 -45 112 0 165 4 173 12 18 18 14 56 -7 68 -29 15 -324 13 -339 -2z"/>
<path d="M1526 489 c-110 -91 -135 -123 -119 -148 5 -9 22 -17 37 -19 22 -3 46 14 127 84 112 97 125 114 109 144 -20 37 -54 24 -154 -61z"/>
<path d="M2730 551 c-5 -11 -7 -27 -4 -35 3 -9 55 -59 115 -111 113 -99 148 -115 169 -76 20 39 21 38 -133 167 -92 77 -127 91 -147 55z"/>
<path d="M2190 330 c-18 -18 -20 -34 -20 -156 0 -74 5 -144 10 -155 12 -21 50 -25 68 -7 13 13 17 295 4 314 -15 22 -42 24 -62 4z"/>
</g>
<g id="layer103" fill="#9bd4cb" stroke="none">
<path d="M2125 1386 c-73 -23 -95 -48 -55 -61 12 -4 25 -18 31 -32 17 -47 -27 -90 -82 -78 l-29 7 0 -91 c0 -74 3 -91 15 -91 8 0 57 14 110 30 l95 31 99 -32 c55 -17 106 -29 113 -27 10 4 12 28 10 92 l-4 87 -28 -6 c-54 -12 -98 32 -81 78 6 14 19 28 31 32 42 13 17 38 -60 62 -88 27 -76 27 -165 -1z m152 -9 c70 -22 99 -37 75 -37 -19 0 -52 -43 -52 -67 0 -13 12 -35 26 -49 20 -20 33 -25 60 -22 l34 4 0 -79 c0 -61 -3 -78 -13 -74 -7 3 -55 17 -105 33 l-92 27 -92 -27 c-50 -16 -98 -30 -105 -33 -10 -4 -13 13 -13 74 l0 79 34 -4 c27 -3 40 2 60 22 14 14 26 36 26 49 0 24 -33 67 -52 67 -24 0 5 15 70 36 37 12 67 22 67 23 0 0 33 -10 72 -22z"/>
</g>
<g id="layer104" fill="#ffd46c" stroke="none">
<path d="M2125 1380 c-27 -10 -43 -18 -35 -18 8 0 38 8 65 18 28 10 43 18 35 18 -8 0 -37 -8 -65 -18z"/>
<path d="M2265 1380 c28 -10 57 -18 65 -18 8 0 -7 8 -35 18 -27 10 -57 18 -65 18 -8 0 8 -8 35 -18z"/>
<path d="M2056 1352 c-3 -5 8 -19 24 -31 53 -38 33 -98 -36 -111 -39 -8 -39 -8 -6 -9 39 -1 82 36 82 72 0 24 -33 67 -51 67 -6 0 -7 5 -4 10 3 6 4 10 1 10 -3 0 -7 -4 -10 -8z"/>
<path d="M2354 1352 c4 -7 3 -12 -3 -12 -18 0 -51 -43 -51 -67 0 -36 43 -73 82 -72 33 1 33 1 -6 9 -70 13 -86 63 -36 110 21 20 27 31 19 36 -8 4 -9 3 -5 -4z"/>
<path d="M1992 1128 c-1 -65 1 -88 11 -87 18 1 114 37 101 38 -6 1 -31 -6 -54 -14 -23 -8 -44 -15 -46 -15 -2 0 -5 37 -7 83 l-3 82 -2 -87z"/>
<path d="M2422 1133 c-1 -46 -3 -83 -5 -83 -2 0 -25 7 -51 16 -26 9 -49 14 -51 12 -3 -2 20 -12 51 -22 31 -10 58 -16 60 -13 3 2 3 42 1 88 l-3 84 -2 -82z"/>
</g>
<g id="layer105" fill="#ffecc0" stroke="none">
<path d="M2056 1352 c-3 -5 9 -19 27 -31 l32 -22 -27 24 c-15 14 -24 28 -21 31 4 3 4 6 0 6 -3 0 -8 -4 -11 -8z"/>
<path d="M2351 1356 c4 -4 -6 -20 -22 -36 -16 -16 -29 -38 -29 -50 0 -31 44 -70 77 -69 26 1 26 2 -7 9 -65 15 -78 65 -30 110 22 21 27 31 18 36 -7 4 -10 4 -7 0z"/>
<path d="M2110 1272 c0 -29 -23 -53 -60 -62 -33 -7 -33 -8 -7 -9 33 -1 77 38 77 69 0 11 -2 20 -5 20 -3 0 -5 -8 -5 -18z"/>
<path d="M1992 1128 c-2 -78 0 -88 16 -88 11 0 13 3 5 8 -7 5 -13 40 -16 87 l-3 80 -2 -87z"/>
<path d="M2420 1131 c0 -54 -4 -81 -12 -84 -8 -3 -6 -6 5 -6 15 -1 17 9 17 84 0 47 -2 85 -5 85 -3 0 -5 -36 -5 -79z"/>
</g>


</svg>