<!DOCTYPE svg PUBLIC "-//W3C//DTD SVG 20010904//EN" "http://www.w3.org/TR/2001/REC-SVG-20010904/DTD/svg10.dtd">
<svg version="1.0" xmlns="http://www.w3.org/2000/svg" width="200px" height="200px" viewBox="0 0 2000 2000" preserveAspectRatio="xMidYMid meet">
<g id="layer101" fill="#ffb401" stroke="none">
<path d="M752 1598 c-18 -18 -15 -36 7 -50 12 -7 17 -16 11 -23 -5 -5 -15 -39 -24 -75 -18 -79 -49 -136 -116 -215 -108 -126 -140 -209 -140 -359 0 -151 20 -211 107 -328 97 -128 267 -207 427 -196 327 23 556 347 467 660 -24 84 -56 138 -132 224 -73 83 -98 129 -106 195 -4 36 -12 54 -27 64 -12 7 -77 27 -146 44 -69 17 -158 40 -199 51 -86 23 -112 25 -129 8z m113 -85 l30 -5 -7 -100 c-8 -108 -44 -238 -65 -238 -9 0 -13 -15 -13 -46 0 -39 -3 -45 -16 -40 -9 4 -36 11 -60 17 -59 15 -94 -6 -94 -56 0 -27 17 -59 85 -152 47 -65 98 -126 113 -135 22 -15 50 -18 147 -18 97 0 125 3 147 18 15 9 66 70 113 135 68 93 85 125 85 152 0 50 -35 71 -94 56 -24 -6 -51 -13 -60 -17 -13 -5 -16 1 -16 40 0 25 -4 46 -8 46 -16 0 -53 132 -67 243 -6 44 -5 48 12 43 10 -3 30 -8 45 -11 20 -5 28 -15 33 -43 11 -58 61 -146 118 -209 111 -120 141 -197 135 -341 -3 -85 -8 -106 -38 -167 -39 -82 -123 -171 -196 -208 -75 -38 -186 -53 -271 -38 -127 22 -218 81 -286 184 -49 74 -67 128 -74 223 -9 128 29 235 117 328 65 69 107 138 130 215 25 78 25 117 3 131 -16 10 -16 11 2 5 11 -4 34 -9 50 -12z"/>
<path d="M1580 1349 c-52 -44 -99 -89 -104 -100 -10 -22 8 -49 33 -49 9 0 65 41 125 91 83 70 106 96 104 113 -2 15 -11 22 -33 23 -25 3 -47 -11 -125 -78z"/>
<path d="M257 1413 c-23 -23 -2 -54 91 -132 104 -87 134 -98 140 -49 3 28 -2 34 -123 137 -55 47 -91 61 -108 44z"/>
<path d="M117 813 c-14 -13 -6 -53 12 -63 11 -5 69 -10 129 -10 95 0 111 3 126 19 14 15 15 24 6 40 -10 20 -19 21 -139 21 -70 0 -131 -3 -134 -7z"/>
<path d="M1592 808 c-18 -18 -15 -35 10 -52 17 -12 50 -16 139 -16 126 0 144 7 137 52 -3 23 -6 23 -138 26 -97 2 -139 -1 -148 -10z"/>
<path d="M444 380 c-86 -73 -101 -94 -83 -116 22 -26 51 -14 130 54 75 64 99 98 84 121 -15 25 -54 7 -131 -59z"/>
<path d="M1402 438 c-7 -7 -12 -18 -12 -24 0 -18 181 -174 201 -174 25 0 43 27 33 49 -14 29 -171 161 -192 161 -10 0 -23 -5 -30 -12z"/>
<path d="M964 257 c-2 -7 -3 -67 -2 -133 l3 -119 31 -3 c26 -3 33 1 38 20 10 38 7 208 -4 229 -12 22 -58 26 -66 6z"/>
</g>
<g id="layer102" fill="#ffffff" stroke="none">
<path d="M890 1979 c-19 -12 -38 -27 -42 -33 -28 -42 21 -71 68 -40 40 27 125 25 164 -4 37 -28 70 -22 70 12 0 72 -176 116 -260 65z"/>
<path d="M757 1893 c-11 -10 -8 -51 4 -58 11 -7 97 -30 322 -87 135 -33 159 -32 165 9 4 28 -17 36 -246 93 -204 50 -233 56 -245 43z"/>
<path d="M754 1736 c-17 -43 -5 -49 211 -103 227 -58 278 -62 283 -26 2 14 -4 26 -18 33 -27 15 -412 110 -445 110 -14 0 -28 -6 -31 -14z"/>
<path d="M752 1598 c-18 -18 -15 -36 7 -50 12 -7 17 -16 11 -23 -5 -5 -15 -39 -24 -75 -18 -79 -49 -136 -116 -215 -108 -126 -140 -209 -140 -359 0 -151 20 -211 107 -328 97 -128 267 -207 427 -196 327 23 556 347 467 660 -24 84 -56 138 -132 224 -73 83 -98 129 -106 195 -4 36 -12 54 -27 64 -12 7 -77 27 -146 44 -69 17 -158 40 -199 51 -86 23 -112 25 -129 8z m113 -85 l30 -5 -7 -100 c-8 -108 -44 -238 -65 -238 -9 0 -13 -15 -13 -46 0 -39 -3 -45 -16 -40 -9 4 -36 11 -60 17 -59 15 -94 -6 -94 -56 0 -27 17 -59 85 -152 47 -65 98 -126 113 -135 22 -15 50 -18 147 -18 97 0 125 3 147 18 15 9 66 70 113 135 68 93 85 125 85 152 0 50 -35 71 -94 56 -24 -6 -51 -13 -60 -17 -13 -5 -16 1 -16 40 0 25 -4 46 -8 46 -16 0 -53 132 -67 243 -6 44 -5 48 12 43 10 -3 30 -8 45 -11 20 -5 28 -15 33 -43 11 -58 61 -146 118 -209 111 -120 141 -197 135 -341 -3 -85 -8 -106 -38 -167 -39 -82 -123 -171 -196 -208 -75 -38 -186 -53 -271 -38 -127 22 -218 81 -286 184 -49 74 -67 128 -74 223 -9 128 29 235 117 328 65 69 107 138 130 215 25 78 25 117 3 131 -16 10 -16 11 2 5 11 -4 34 -9 50 -12z m216 -465 c-42 -39 -15 -104 41 -96 l28 5 0 -65 c0 -47 -3 -63 -12 -60 -7 3 -44 15 -82 28 l-70 23 -70 -23 c-39 -12 -77 -25 -83 -27 -10 -4 -13 12 -13 59 l0 65 28 -5 c56 -8 83 57 41 97 l-20 19 58 19 c58 20 58 20 116 0 58 -19 58 -19 38 -39z"/>
<path d="M925 708 c-91 -71 -50 -198 64 -198 49 0 80 18 100 57 51 99 -77 210 -164 141z"/>
</g>


</svg>